<mxfile host="app.diagrams.net" modified="2021-03-26T13:33:50.363Z" agent="5.0 (Macintosh; Intel Mac OS X 10_15_7) AppleWebKit/537.36 (KHTML, like Gecko) Chrome/89.0.4389.90 Safari/537.36" etag="cdL8hXt7hfa8ls1KDEaM" version="14.5.1" type="github">
  <diagram id="oAJ9JddJH_bf1Wse_2Dv" name="Page-1">
    <mxGraphModel dx="1405" dy="891" grid="1" gridSize="10" guides="1" tooltips="1" connect="1" arrows="1" fold="1" page="1" pageScale="1" pageWidth="827" pageHeight="1169" math="0" shadow="0">
      <root>
        <mxCell id="0" />
        <mxCell id="1" parent="0" />
        <mxCell id="r8p9RMFexIgCfqPO_6ty-1" value="Navbar" style="html=1;shadow=0;dashed=0;fillColor=#343A40;strokeColor=none;fontSize=16;fontColor=#ffffff;align=left;spacing=15;" vertex="1" parent="1">
          <mxGeometry x="14" y="10" width="800" height="60" as="geometry" />
        </mxCell>
        <mxCell id="r8p9RMFexIgCfqPO_6ty-2" value="Home" style="fillColor=none;strokeColor=none;fontSize=14;fontColor=#ffffff;align=center;" vertex="1" parent="r8p9RMFexIgCfqPO_6ty-1">
          <mxGeometry width="70" height="40" relative="1" as="geometry">
            <mxPoint x="70" y="10" as="offset" />
          </mxGeometry>
        </mxCell>
        <mxCell id="r8p9RMFexIgCfqPO_6ty-3" value="Features" style="fillColor=none;strokeColor=none;fontSize=14;fontColor=#9A9DA0;align=center;" vertex="1" parent="r8p9RMFexIgCfqPO_6ty-1">
          <mxGeometry width="70" height="40" relative="1" as="geometry">
            <mxPoint x="140" y="10" as="offset" />
          </mxGeometry>
        </mxCell>
        <mxCell id="r8p9RMFexIgCfqPO_6ty-4" value="Pricing" style="fillColor=none;strokeColor=none;fontSize=14;fontColor=#9A9DA0;align=center;spacingRight=0;" vertex="1" parent="r8p9RMFexIgCfqPO_6ty-1">
          <mxGeometry width="80" height="40" relative="1" as="geometry">
            <mxPoint x="210" y="10" as="offset" />
          </mxGeometry>
        </mxCell>
        <mxCell id="r8p9RMFexIgCfqPO_6ty-5" value="About" style="fillColor=none;strokeColor=none;fontSize=14;fontColor=#9A9DA0;align=center;" vertex="1" parent="r8p9RMFexIgCfqPO_6ty-1">
          <mxGeometry width="80" height="40" relative="1" as="geometry">
            <mxPoint x="290" y="10" as="offset" />
          </mxGeometry>
        </mxCell>
        <mxCell id="r8p9RMFexIgCfqPO_6ty-6" value="Search" style="html=1;shadow=0;dashed=0;shape=mxgraph.bootstrap.rrect;rSize=5;fontSize=14;fontColor=#1CA5B8;strokeColor=#1CA5B8;fillColor=none;" vertex="1" parent="r8p9RMFexIgCfqPO_6ty-1">
          <mxGeometry x="1" width="70" height="40" relative="1" as="geometry">
            <mxPoint x="-80" y="10" as="offset" />
          </mxGeometry>
        </mxCell>
        <mxCell id="r8p9RMFexIgCfqPO_6ty-7" value="Search" style="html=1;shadow=0;dashed=0;shape=mxgraph.bootstrap.rrect;rSize=5;fontSize=14;fontColor=#6C767D;strokeColor=#CED4DA;fillColor=#ffffff;align=left;spacing=10;" vertex="1" parent="r8p9RMFexIgCfqPO_6ty-1">
          <mxGeometry x="1" width="180" height="40" relative="1" as="geometry">
            <mxPoint x="-270" y="10" as="offset" />
          </mxGeometry>
        </mxCell>
        <mxCell id="r8p9RMFexIgCfqPO_6ty-16" value="" style="group" vertex="1" connectable="0" parent="1">
          <mxGeometry x="14" y="120" width="798" height="1020" as="geometry" />
        </mxCell>
        <mxCell id="r8p9RMFexIgCfqPO_6ty-8" value="&lt;b&gt;&lt;font style=&quot;font-size: 20px&quot;&gt;Card title&lt;/font&gt;&lt;/b&gt;&lt;br&gt;&lt;br&gt;This is a wider card with supporting text below as a natural lead-in to additional content. This content is a little bit longer.&lt;br&gt;&lt;br&gt;&lt;font style=&quot;font-size: 12px&quot; color=&quot;#999999&quot;&gt;Last udated 3 mind ago&lt;/font&gt;" style="html=1;shadow=0;dashed=0;shape=mxgraph.bootstrap.rrect;rSize=5;strokeColor=#DFDFDF;html=1;whiteSpace=wrap;fillColor=#ffffff;fontColor=#000000;verticalAlign=top;align=left;spacing=20;fontSize=14;spacingLeft=170;" vertex="1" parent="r8p9RMFexIgCfqPO_6ty-16">
          <mxGeometry width="796" height="240" as="geometry" />
        </mxCell>
        <mxCell id="r8p9RMFexIgCfqPO_6ty-9" value="Image" style="html=1;shadow=0;dashed=0;shape=mxgraph.bootstrap.leftButton;rSize=5;perimeter=none;whiteSpace=wrap;fillColor=#868E96;strokeColor=#DFDFDF;fontColor=#DEE2E6;resizeWidth=1;fontSize=18;" vertex="1" parent="r8p9RMFexIgCfqPO_6ty-8">
          <mxGeometry width="180" height="240" relative="1" as="geometry" />
        </mxCell>
        <mxCell id="r8p9RMFexIgCfqPO_6ty-10" value="&lt;b&gt;&lt;font style=&quot;font-size: 20px&quot;&gt;Card title&lt;/font&gt;&lt;/b&gt;&lt;br&gt;&lt;br&gt;This is a wider card with supporting text below as a natural lead-in to additional content. This content is a little bit longer.&lt;br&gt;&lt;br&gt;&lt;font style=&quot;font-size: 12px&quot; color=&quot;#999999&quot;&gt;Last udated 3 mind ago&lt;/font&gt;" style="html=1;shadow=0;dashed=0;shape=mxgraph.bootstrap.rrect;rSize=5;strokeColor=#DFDFDF;html=1;whiteSpace=wrap;fillColor=#ffffff;fontColor=#000000;verticalAlign=top;align=left;spacing=20;fontSize=14;spacingLeft=170;" vertex="1" parent="r8p9RMFexIgCfqPO_6ty-16">
          <mxGeometry y="260" width="796" height="240" as="geometry" />
        </mxCell>
        <mxCell id="r8p9RMFexIgCfqPO_6ty-11" value="Image" style="html=1;shadow=0;dashed=0;shape=mxgraph.bootstrap.leftButton;rSize=5;perimeter=none;whiteSpace=wrap;fillColor=#868E96;strokeColor=#DFDFDF;fontColor=#DEE2E6;resizeWidth=1;fontSize=18;" vertex="1" parent="r8p9RMFexIgCfqPO_6ty-10">
          <mxGeometry width="180" height="240" relative="1" as="geometry" />
        </mxCell>
        <mxCell id="r8p9RMFexIgCfqPO_6ty-12" value="&lt;b&gt;&lt;font style=&quot;font-size: 20px&quot;&gt;Card title&lt;/font&gt;&lt;/b&gt;&lt;br&gt;&lt;br&gt;This is a wider card with supporting text below as a natural lead-in to additional content. This content is a little bit longer.&lt;br&gt;&lt;br&gt;&lt;font style=&quot;font-size: 12px&quot; color=&quot;#999999&quot;&gt;Last udated 3 mind ago&lt;/font&gt;" style="html=1;shadow=0;dashed=0;shape=mxgraph.bootstrap.rrect;rSize=5;strokeColor=#DFDFDF;html=1;whiteSpace=wrap;fillColor=#ffffff;fontColor=#000000;verticalAlign=top;align=left;spacing=20;fontSize=14;spacingLeft=170;" vertex="1" parent="r8p9RMFexIgCfqPO_6ty-16">
          <mxGeometry y="520" width="796" height="240" as="geometry" />
        </mxCell>
        <mxCell id="r8p9RMFexIgCfqPO_6ty-13" value="Image" style="html=1;shadow=0;dashed=0;shape=mxgraph.bootstrap.leftButton;rSize=5;perimeter=none;whiteSpace=wrap;fillColor=#868E96;strokeColor=#DFDFDF;fontColor=#DEE2E6;resizeWidth=1;fontSize=18;" vertex="1" parent="r8p9RMFexIgCfqPO_6ty-12">
          <mxGeometry width="180" height="240" relative="1" as="geometry" />
        </mxCell>
        <mxCell id="r8p9RMFexIgCfqPO_6ty-14" value="&lt;b&gt;&lt;font style=&quot;font-size: 20px&quot;&gt;Card title&lt;/font&gt;&lt;/b&gt;&lt;br&gt;&lt;br&gt;This is a wider card with supporting text below as a natural lead-in to additional content. This content is a little bit longer.&lt;br&gt;&lt;br&gt;&lt;font style=&quot;font-size: 12px&quot; color=&quot;#999999&quot;&gt;Last udated 3 mind ago&lt;/font&gt;" style="html=1;shadow=0;dashed=0;shape=mxgraph.bootstrap.rrect;rSize=5;strokeColor=#DFDFDF;html=1;whiteSpace=wrap;fillColor=#ffffff;fontColor=#000000;verticalAlign=top;align=left;spacing=20;fontSize=14;spacingLeft=170;" vertex="1" parent="r8p9RMFexIgCfqPO_6ty-16">
          <mxGeometry x="2" y="780" width="796" height="240" as="geometry" />
        </mxCell>
        <mxCell id="r8p9RMFexIgCfqPO_6ty-15" value="Image" style="html=1;shadow=0;dashed=0;shape=mxgraph.bootstrap.leftButton;rSize=5;perimeter=none;whiteSpace=wrap;fillColor=#868E96;strokeColor=#DFDFDF;fontColor=#DEE2E6;resizeWidth=1;fontSize=18;" vertex="1" parent="r8p9RMFexIgCfqPO_6ty-14">
          <mxGeometry width="180" height="240" relative="1" as="geometry" />
        </mxCell>
      </root>
    </mxGraphModel>
  </diagram>
</mxfile>
